# Blender v2.78 (sub 0) OBJ File: 'crystal.blend'
# www.blender.org
mtllib crystal.mtl
o Cube
v 0.666862 0.500000 0.331444
v 0.500000 0.001074 0.500000
v 0.333138 0.500000 0.331444
v 0.666862 0.500000 0.668556
v 0.333138 0.500000 0.668556
v 0.500000 0.998926 0.500000
vn -0.0000 -0.3201 0.9474
vn -0.9484 0.3172 -0.0000
vn 0.0000 -0.3201 -0.9474
vn 0.9484 -0.3172 0.0000
vn -0.9484 -0.3172 -0.0000
vn 0.0000 0.3201 0.9474
vn 0.9484 0.3172 0.0000
vn 0.0000 0.3201 -0.9474
usemtl Material
f 5//1 2//1 4//1
f 6//2 3//2 5//2
f 3//3 1//3 2//3
f 4//4 2//4 1//4
f 2//5 5//5 3//5
f 5//6 4//6 6//6
f 4//7 1//7 6//7
f 3//8 6//8 1//8
